<?xml version="1.0" standalone="no"?>
<!DOCTYPE svg PUBLIC "-//W3C//DTD SVG 20010904//EN"
 "http://www.w3.org/TR/2001/REC-SVG-20010904/DTD/svg10.dtd">
<svg version="1.0" xmlns="http://www.w3.org/2000/svg"
 width="700.000000pt" height="700.000000pt" viewBox="0 0 700.000000 700.000000"
 preserveAspectRatio="xMidYMid meet">
<metadata>
Created by potrace 1.14, written by Peter Selinger 2001-2017
</metadata>
<g transform="translate(0.000000,700.000000) scale(0.100000,-0.100000)"
fill="#000000" stroke="none">
<path d="M1085 6468 c-33 -19 -53 -42 -64 -71 -8 -20 -11 -431 -11 -1323 l0
-1294 840 0 840 0 0 -280 0 -280 -840 0 -840 0 0 -1301 c0 -1314 0 -1321 34
-1354 69 -69 122 -62 306 42 19 11 62 35 95 53 66 36 134 73 210 115 28 16 73
40 100 55 28 15 66 36 85 47 19 11 64 36 100 55 36 19 82 45 102 56 21 12 68
38 105 58 153 83 229 125 243 134 8 6 22 13 30 17 8 4 116 63 240 131 124 68
245 135 270 149 25 13 52 28 60 33 8 5 58 32 110 61 90 49 137 74 240 131 25
14 97 54 160 88 63 35 131 72 150 83 19 11 67 37 105 57 39 21 112 61 164 90
51 28 267 148 480 264 212 117 413 228 446 246 33 18 150 83 260 143 110 61
225 124 255 140 30 16 69 38 85 47 17 10 59 33 95 53 36 19 128 69 205 112 77
42 248 136 380 208 132 72 257 144 277 159 49 38 67 93 49 146 -22 60 -34 70
-181 149 -103 55 -182 99 -270 148 -41 23 -111 62 -155 85 -44 24 -134 73
-200 110 -66 37 -151 84 -190 105 -38 21 -108 59 -155 85 -47 26 -116 64 -155
85 -38 21 -149 82 -245 135 -96 53 -231 128 -300 165 -69 38 -141 77 -160 88
-19 11 -60 33 -90 50 -151 81 -191 103 -260 142 -41 24 -100 56 -130 72 -95
52 -163 89 -213 117 -26 14 -68 38 -95 52 -26 15 -76 42 -112 62 -36 19 -123
67 -195 107 -71 40 -182 101 -245 135 -63 35 -134 74 -157 87 -24 13 -64 35
-90 49 -27 15 -66 37 -88 49 -53 28 -133 72 -425 233 -135 74 -273 150 -307
168 -34 19 -85 47 -113 64 -28 16 -54 30 -58 30 -5 0 -14 6 -20 13 -7 6 -16
12 -20 12 -4 0 -77 39 -162 86 -85 48 -180 100 -210 117 -30 16 -73 39 -95 52
-128 73 -168 90 -208 90 -23 0 -51 -6 -62 -12z"/>
</g>
</svg>
