<svg width="25" height="25" viewBox="0 0 25 25" fill="none" xmlns="http://www.w3.org/2000/svg">
<g clip-path="url(#clip0_1_376)">
<path d="M16.3848 11.5C17.2132 11.5 17.8848 10.8284 17.8848 10C17.8848 9.17157 17.2132 8.5 16.3848 8.5C15.5563 8.5 14.8848 9.17157 14.8848 10C14.8848 10.8284 15.5563 11.5 16.3848 11.5Z" fill="#858585"/>
<path d="M9.38477 11.5C10.2132 11.5 10.8848 10.8284 10.8848 10C10.8848 9.17157 10.2132 8.5 9.38477 8.5C8.55634 8.5 7.88477 9.17157 7.88477 10C7.88477 10.8284 8.55634 11.5 9.38477 11.5Z" fill="#858585"/>
<path d="M12.8748 2.5C7.35477 2.5 2.88477 6.98 2.88477 12.5C2.88477 18.02 7.35477 22.5 12.8748 22.5C18.4048 22.5 22.8848 18.02 22.8848 12.5C22.8848 6.98 18.4048 2.5 12.8748 2.5ZM12.8848 20.5C8.46477 20.5 4.88477 16.92 4.88477 12.5C4.88477 8.08 8.46477 4.5 12.8848 4.5C17.3048 4.5 20.8848 8.08 20.8848 12.5C20.8848 16.92 17.3048 20.5 12.8848 20.5ZM7.88477 14.5C8.66477 16.84 10.6048 18.5 12.8848 18.5C15.1648 18.5 17.1048 16.84 17.8848 14.5H7.88477Z" fill="#858585"/>
</g>
<defs>
<clipPath id="clip0_1_376">
<rect width="24" height="24" fill="white" transform="translate(0.884766 0.5)"/>
</clipPath>
</defs>
</svg>
