<svg width="25" height="25" viewBox="0 0 25 25" fill="none" xmlns="http://www.w3.org/2000/svg">
<path d="M18.5737 16.7423L22.8564 21.025L21.4422 22.4392L17.1595 18.1565C15.6196 19.3885 13.6667 20.1255 11.5427 20.1255C6.57472 20.1255 2.54272 16.0935 2.54272 11.1255C2.54272 6.15749 6.57472 2.12549 11.5427 2.12549C16.5107 2.12549 20.5427 6.15749 20.5427 11.1255C20.5427 13.2495 19.8057 15.2024 18.5737 16.7423ZM16.5674 16.0003C17.7902 14.7401 18.5427 13.0211 18.5427 11.1255C18.5427 7.25799 15.4102 4.12549 11.5427 4.12549C7.67522 4.12549 4.54272 7.25799 4.54272 11.1255C4.54272 14.993 7.67522 18.1255 11.5427 18.1255C13.4383 18.1255 15.1573 17.373 16.4175 16.1502L16.5674 16.0003Z" fill="#858585"/>
</svg>
