<svg xmlns="http://www.w3.org/2000/svg" viewBox="0 0 500 500"><g id="freepik--background-complete--inject-14"><rect x="416.78" y="398.49" width="33.12" height="0.25" style="fill:#ebebeb"></rect><rect x="322.53" y="401.21" width="8.69" height="0.25" style="fill:#ebebeb"></rect><rect x="396.59" y="389.21" width="19.19" height="0.25" style="fill:#ebebeb"></rect><rect x="52.46" y="390.89" width="43.19" height="0.25" style="fill:#ebebeb"></rect><rect x="104.56" y="390.89" width="6.33" height="0.25" style="fill:#ebebeb"></rect><rect x="131.47" y="395.11" width="93.68" height="0.25" style="fill:#ebebeb"></rect><path d="M238.4,337.8H45.3a5.71,5.71,0,0,1-5.71-5.71V60.66A5.71,5.71,0,0,1,45.3,55H238.4a5.71,5.71,0,0,1,5.71,5.71V332.09A5.71,5.71,0,0,1,238.4,337.8ZM45.3,55.2a5.47,5.47,0,0,0-5.46,5.46V332.09a5.47,5.47,0,0,0,5.46,5.46H238.4a5.47,5.47,0,0,0,5.46-5.46V60.66a5.47,5.47,0,0,0-5.46-5.46Z" style="fill:#ebebeb"></path><path d="M454.7,337.8H261.6a5.71,5.71,0,0,1-5.71-5.71V60.66A5.71,5.71,0,0,1,261.6,55H454.7a5.71,5.71,0,0,1,5.71,5.71V332.09A5.71,5.71,0,0,1,454.7,337.8ZM261.6,55.2a5.47,5.47,0,0,0-5.46,5.46V332.09a5.47,5.47,0,0,0,5.46,5.46H454.7a5.47,5.47,0,0,0,5.46-5.46V60.66a5.47,5.47,0,0,0-5.46-5.46Z" style="fill:#ebebeb"></path><rect y="382.4" width="500" height="0.25" style="fill:#ebebeb"></rect><path d="M406.78,164.81H367.24a6.8,6.8,0,0,0-6.8,6.81v25.46a6.8,6.8,0,0,0,6.8,6.81h11.37l5.08,6.64a4.18,4.18,0,0,0,6.64,0l5.08-6.64h11.37a6.8,6.8,0,0,0,6.8-6.81V171.62A6.8,6.8,0,0,0,406.78,164.81Z" style="fill:#e0e0e0"></path><path d="M378.51,187.07a8.49,8.49,0,0,1-2.83-6,5.12,5.12,0,0,1,5.44-5.41c3.06,0,4.1,1.42,5.89,3.47,1.79-2,2.83-3.47,5.89-3.47a5.12,5.12,0,0,1,5.44,5.41,8.49,8.49,0,0,1-2.83,6l-8.5,8.46Z" style="fill:#fff"></path><path d="M100.86,365a10,10,0,0,1-3.34-7,6,6,0,0,1,6.41-6.37c3.6,0,4.83,1.67,6.94,4.09,2.11-2.42,3.34-4.09,6.94-4.09a6,6,0,0,1,6.41,6.37,10,10,0,0,1-3.34,7l-10,10Z" style="fill:#e0e0e0"></path><path d="M123.47,376.27a6.13,6.13,0,0,1-2-4.3,3.68,3.68,0,0,1,3.92-3.89c2.2,0,3,1,4.24,2.49,1.29-1.47,2-2.49,4.24-2.49a3.68,3.68,0,0,1,3.92,3.89,6.13,6.13,0,0,1-2,4.3l-6.12,6.09Z" style="fill:#ebebeb"></path><path d="M380.22,92.28H334.86a7.81,7.81,0,0,0-7.81,7.81V129.3a7.82,7.82,0,0,0,7.81,7.82h13.05l5.82,7.61a4.79,4.79,0,0,0,7.62,0l5.83-7.61h13A7.82,7.82,0,0,0,388,129.3V100.09A7.81,7.81,0,0,0,380.22,92.28Z" style="fill:#f5f5f5"></path><polygon points="343.3 126.44 348.44 126.44 348.44 108.18 342.44 108.18 343.3 126.44" style="fill:#e0e0e0"></polygon><path d="M372.27,111c-.26-.81-1.08-2.51-1.86-2.85-2.25-1-7.18-.69-11.54-.12.18-.35.33-.66.42-.88a13.2,13.2,0,0,0,.91-4.12c-.07-1-.52-3.12-1.33-3.64a2.33,2.33,0,0,0-2.06,0c-.87.91-.27,3.77-.61,5a18.39,18.39,0,0,1-3,4.58c-1.53.28-2.5.49-2.5.49v16.13s13.17,3.58,17.41,2.42c1.63-.44,2.4-3.27,3-4.85C372.2,120.32,373.2,113.92,372.27,111Z" style="fill:#e0e0e0"></path><path d="M265.5,117.66a11.43,11.43,0,0,0-11.39-10.51h-8.22a11.43,11.43,0,0,0-11.39,10.51l-.69,7h32.38Z" style="fill:#ebebeb"></path><circle cx="250" cy="99.44" r="7.71" style="fill:#ebebeb"></circle><path d="M97,225.14a5.16,5.16,0,0,0-3.26,1.15l-6.19-5a5,5,0,0,0,.56-2.32,5.16,5.16,0,1,0-1.9,4l6.19,5a5.11,5.11,0,0,0,0,4.65l-6.19,5a5.16,5.16,0,1,0,1.9,4,5.06,5.06,0,0,0-.56-2.32l6.19-5A5.16,5.16,0,1,0,97,225.14Z" style="fill:#e0e0e0"></path></g><g id="freepik--Shadow--inject-14"><ellipse id="freepik--path--inject-14" cx="250" cy="412.39" rx="193.89" ry="11.32" style="fill:#f5f5f5"></ellipse></g><g id="freepik--character-4--inject-14"><path d="M346.86,272.09h75.69a10.52,10.52,0,0,1,10.52,10.52v57.53a10.52,10.52,0,0,1-10.52,10.52H365.4A18.6,18.6,0,0,1,347,367c-.42,0-.83,0-1.25-.06,3-3.9,5.37-9.54,6.95-16.27h-5.79a10.52,10.52,0,0,1-10.52-10.52V282.61A10.52,10.52,0,0,1,346.86,272.09Z" style="fill:#198EB6"></path><path d="M346.86,272.09h75.69a10.52,10.52,0,0,1,10.52,10.52v57.53a10.52,10.52,0,0,1-10.52,10.52H365.4A18.6,18.6,0,0,1,347,367c-.42,0-.83,0-1.25-.06,3-3.9,5.37-9.54,6.95-16.27h-5.79a10.52,10.52,0,0,1-10.52-10.52V282.61A10.52,10.52,0,0,1,346.86,272.09Z" style="fill:#fff;opacity:0.4"></path><path d="M343.28,294.46l-3.74-6.33,2.34-4a2,2,0,0,0,.14-1.73l-.18-.45a2,2,0,0,0-1.83-1.3l-3.67-.1a2,2,0,0,0-1.83,1.05l-.74,1.36a2.39,2.39,0,0,0-.07,2.15l1.58,3.41,2.93,7.84Z" style="fill:#7f3e3b"></path><path d="M373.07,293.35,351.7,308.9l-10-18.78-5.7,2.47s8.79,28.46,13.9,27.31,19.53-8.28,24.22-13.17c2.37-2.47,4.17-7,1.83-12.6A1.87,1.87,0,0,0,373.07,293.35Z" style="fill:#198EB6"></path><path d="M381.05,256.32s-7.54,2-4.05,11.09c0,0,3.76-1,4.37-3.42s1.19-5.84,1.19-5.84Z" style="fill:#263238"></path><path d="M381.05,256.32s-7.54,2-4.05,11.09c0,0,3.76-1,4.37-3.42s1.19-5.84,1.19-5.84Z" style="opacity:0.30000000000000004"></path><polygon points="398.88 292.45 385.1 292 379.4 292.82 378.62 303.21 389.73 306.9 401.58 304.54 402.2 294.53 401.35 292.53 398.88 292.45" style="fill:#7f3e3b"></polygon><path d="M380.12,350.66h19.5c.19-6.87,1.21-42.54,1-42.32s2.06-7.6,2.06-7.6v-3.17l-2.06-3.4s-4.42,6.74-11.7,6.41c-6.9-.32-8.09-7.21-8.09-7.21L380,303.9l-.87,25.5,1.11,10.8Z" style="fill:#198EB6"></path><path d="M380.12,350.66h19.5c.19-6.87,1.21-42.54,1-42.32s2.06-7.6,2.06-7.6v-3.17l-2.06-3.4s-4.42,6.74-11.7,6.41c-6.9-.32-8.09-7.21-8.09-7.21L380,303.9l-.87,25.5,1.11,10.8Z" style="fill:#fff;opacity:0.6000000000000001"></path><path d="M372.36,350.66h10.56c2.08-13.76,2.36-38.92,2.36-38.92a130.65,130.65,0,0,1-2.95-14.63c-.64-5.77,7.6-5,14.8-4.05s-5.6,19.16-5.6,19.16-.91,24.61,1.2,38.44h26c-1.3-3.67-5.14-14.94-6-22.93-1.11-9.66,5.54-23.75,4.59-30.62s-23.74-5.47-23.74-5.47-14.59-.1-17.84.05c-3.8.17-5.32,10.18-7.12,18.09s1.51,15.74,3.32,25.69A51,51,0,0,1,372.36,350.66Z" style="fill:#263238"></path><path d="M384,291.61c4.74,0,9.63,0,9.63,0s2.91-.18,6.69-.1c1.51,1,3.5,3.42,1.92,8.48l-3.3,1.27.6,3.25s-3.8,6-8,8.3c0-.4,0-.62,0-.62s12.81-18.21,5.6-19.16-15.44-1.72-14.8,4.05a130.65,130.65,0,0,0,2.95,14.63s0,.1,0,.27c-2-1.81-3.75-5-5-8.82l1.35-3.74-3-1.64A8,8,0,0,1,384,291.61Z" style="fill:#198EB6"></path><path d="M383.8,297.06a3.45,3.45,0,0,1,.3-3.3c5.42-1.83,4.92-5.9,3.67-9.67l8.73-8.91c-.51,4.74-.7,15.65,2.4,19.45v.87a11.82,11.82,0,0,1-11.65,4.33A4.54,4.54,0,0,1,383.8,297.06Z" style="fill:#7f3e3b"></path><path d="M387.77,284.09l6.94-7.08,1.6.58c-.05.85-.08,1.78-.09,2.76-.88,1.8-3,4.33-7.92,5.6A17.81,17.81,0,0,0,387.77,284.09Z" style="opacity:0.1"></path><path d="M401,267.32c-2.11,8.07-2.83,11.53-7.78,14.91-7.44,5.09-16.89.74-17.24-7.8-.31-7.69,3.18-19.59,11.82-21.27A11.38,11.38,0,0,1,401,267.32Z" style="fill:#7f3e3b"></path><path d="M381.77,269.4a18.44,18.44,0,0,1-3.2,3.79,2.9,2.9,0,0,0,2.27.91Z" style="fill:#630f0f"></path><path d="M390.38,266.43a.33.33,0,0,0,.16-.05.32.32,0,0,0,.11-.45h0a3.84,3.84,0,0,0-3-1.93.33.33,0,0,0-.34.32.32.32,0,0,0,.31.34,3.24,3.24,0,0,1,2.46,1.62A.34.34,0,0,0,390.38,266.43Z" style="fill:#263238"></path><path d="M377,264a.29.29,0,0,0,.16,0,3.23,3.23,0,0,1,2.93-.19.34.34,0,0,0,.45-.14h0a.33.33,0,0,0-.15-.45,3.9,3.9,0,0,0-3.56.2.34.34,0,0,0-.14.45.33.33,0,0,0,.31.17Z" style="fill:#263238"></path><path d="M384.22,276.32a6.38,6.38,0,0,1-1.15-.1.2.2,0,0,1-.17-.23h0a.21.21,0,0,1,.23-.17,5.51,5.51,0,0,0,4.77-1.33.21.21,0,0,1,.3.28A5.75,5.75,0,0,1,384.22,276.32Z" style="fill:#263238"></path><path d="M398.23,273.63a10.23,10.23,0,0,1-2.45-8.2s-3.25-3.33-3.09-6.89c0,0-1,2.84,0,4.86,0,0-8.43-.61-8.23-4.86,0,0-.56,2.14.71,3.25,0,0-7.49.31-6.47-3.57s6.88-5.77,6.88-5.77,5.59-4.75,13.32,3.64c0,0,9.1,5.68,2.65,15.16Z" style="fill:#263238"></path><path d="M401.61,274.16a6,6,0,0,1-3.58,3c-2,.62-3.11-1.2-2.58-3.15.48-1.76,2.12-4.2,4.2-4a2.75,2.75,0,0,1,2.32,3.12A2.65,2.65,0,0,1,401.61,274.16Z" style="fill:#7f3e3b"></path><path d="M387.84,268.25c-.08.69-.51,1.22-1,1.17s-.76-.64-.68-1.35.5-1.21.95-1.17S387.91,267.55,387.84,268.25Z" style="fill:#2e353a"></path><path d="M380,267.43c-.07.69-.5,1.21-.95,1.17s-.77-.65-.7-1.35.5-1.22,1-1.17S380,266.72,380,267.43Z" style="fill:#2e353a"></path><path d="M379.45,266.14l-1.62-.66S378.55,266.87,379.45,266.14Z" style="fill:#2e353a"></path><path d="M387.34,267l-1.63-.65S386.44,267.7,387.34,267Z" style="fill:#2e353a"></path><path d="M397.53,280.91a2.7,2.7,0,0,0,2-4.52l-.35.32a2.19,2.19,0,0,1,.58,1.5,2.23,2.23,0,1,1-2.22-2.22,2.18,2.18,0,0,1,.91.19l.19-.43a2.59,2.59,0,0,0-1.1-.24,2.7,2.7,0,1,0,0,5.4Z" style="fill:#198EB6"></path><g style="opacity:0.6000000000000001"><path d="M397.53,280.91a2.7,2.7,0,0,0,2-4.52l-.35.32a2.19,2.19,0,0,1,.58,1.5,2.23,2.23,0,1,1-2.22-2.22,2.18,2.18,0,0,1,.91.19l.19-.43a2.59,2.59,0,0,0-1.1-.24,2.7,2.7,0,1,0,0,5.4Z" style="fill:#fff"></path></g><path d="M395.67,321.75l-7.34.32-2.46-4a2,2,0,0,0-1.47-.94l-.48-.06a2,2,0,0,0-2,1l-1.82,3.19a2,2,0,0,0,.07,2.11l.85,1.29a2.38,2.38,0,0,0,1.86,1.08l3.75.21,8.3,1.12Z" style="fill:#7f3e3b"></path><path d="M408.72,295l3.65,26.17H391.08l-.51,6.19s29.25,5.67,30.64.62,1.9-21.12-.2-27.57c-1.07-3.25-4.21-7-10.25-7.55A1.89,1.89,0,0,0,408.72,295Z" style="fill:#198EB6"></path></g><g id="freepik--character-1--inject-14"><path d="M315.69,144H292.32L268.76,413.4h23.37a21.84,21.84,0,0,0,21.33-19.62l20.13-230.15A17.68,17.68,0,0,0,315.69,144Z" style="fill:#263238"></path><path d="M330.17,171a2.09,2.09,0,0,1,2-1.88,1.7,1.7,0,0,1,1.72,1.88l-1.58,18A2.1,2.1,0,0,1,330.3,191a1.7,1.7,0,0,1-1.71-1.88Z" style="fill:#198EB6"></path><path d="M330.17,171a2.09,2.09,0,0,1,2-1.88,1.7,1.7,0,0,1,1.72,1.88l-1.58,18A2.1,2.1,0,0,1,330.3,191a1.7,1.7,0,0,1-1.71-1.88Z" style="fill:#fff;opacity:0.30000000000000004"></path><path d="M287.34,413.4H191.05a17.69,17.69,0,0,1-17.9-19.62l20.14-230.15A21.82,21.82,0,0,1,214.62,144h96.29a17.69,17.69,0,0,1,17.9,19.61L308.67,393.78A21.84,21.84,0,0,1,287.34,413.4Z" style="fill:#198EB6"></path><path d="M310.52,148.52h-25a3.64,3.64,0,0,0-3.48,2.84l-.17.79a8.88,8.88,0,0,1-8.5,6.94H249.55a7.13,7.13,0,0,1-7.28-6.94l0-.79a2.92,2.92,0,0,0-3-2.84h-25a16.83,16.83,0,0,0-16.43,15.11L177.65,393.78a13.63,13.63,0,0,0,13.79,15.12h96.3a16.83,16.83,0,0,0,16.43-15.12l20.14-230.15A13.63,13.63,0,0,0,310.52,148.52Z" style="fill:#198EB6"></path><path d="M310.52,148.52h-25a3.64,3.64,0,0,0-3.48,2.84l-.17.79a8.88,8.88,0,0,1-8.5,6.94H249.55a7.13,7.13,0,0,1-7.28-6.94l0-.79a2.92,2.92,0,0,0-3-2.84h-25a16.83,16.83,0,0,0-16.43,15.11L177.65,393.78a13.63,13.63,0,0,0,13.79,15.12h96.3a16.83,16.83,0,0,0,16.43-15.12l20.14-230.15A13.63,13.63,0,0,0,310.52,148.52Z" style="fill:#fff;opacity:0.7000000000000001"></path><g style="opacity:0.2"><ellipse cx="254.41" cy="151.07" rx="2" ry="1.83" transform="translate(-33.84 217.86) rotate(-43.75)"></ellipse><path d="M270.05,149.16h-6.56a2.13,2.13,0,0,0-2.08,1.91,1.73,1.73,0,0,0,1.75,1.91h6.56a2.14,2.14,0,0,0,2.08-1.91A1.72,1.72,0,0,0,270.05,149.16Z"></path></g><polygon points="208.67 159.06 210.69 159.06 210.87 157.03 208.84 157.03 208.67 159.06" style="fill:#198EB6"></polygon><polygon points="212.9 157.03 212.72 159.06 214.74 159.06 214.92 157.03 215.1 155.01 213.07 155.01 212.9 157.03" style="fill:#198EB6"></polygon><polygon points="217.3 152.98 217.12 155.01 216.94 157.03 216.77 159.06 218.79 159.06 218.97 157.03 219.15 155.01 219.32 152.98 217.3 152.98" style="fill:#198EB6"></polygon><path d="M304.37,153.12l-.13,1.48h-1l-.26,3h1l-.13,1.49h8.91l.52-5.94Zm3.57,4.45h-3l.26-3h3Z" style="fill:#198EB6"></path><g style="opacity:0.4"><path d="M249.62,159.09,183.15,406.26a14,14,0,0,0,8.29,2.64h5.2l67.18-249.81Z" style="fill:#fff"></path><path d="M310.52,148.52h-25a3.64,3.64,0,0,0-3.48,2.84l-.17.79a8.88,8.88,0,0,1-8.19,6.93L206.46,408.9h51.25l66.6-247.66A13.55,13.55,0,0,0,310.52,148.52Z" style="fill:#fff"></path></g><path d="M209.91,215.6l-3-.65a1.35,1.35,0,0,1-1-1.81l4.19-10.94,4.79,1-3.41,11.43A1.35,1.35,0,0,1,209.91,215.6Z" style="fill:#198EB6"></path><path d="M221.53,201.6h0a1.53,1.53,0,0,1-1.17-1.83l.4-1.88a1.53,1.53,0,0,1,1.84-1.17h0a1.54,1.54,0,0,1,1.18,1.83l-.41,1.87A1.55,1.55,0,0,1,221.53,201.6Z" style="fill:#198EB6"></path><path d="M218.57,192.28s-11.4-1.3-15.39-3.34c-9.38-4.82-18.35-16.32-20.25-16.73-3.1-.68-7.32,6.66-9.44,16.39s-1.32,18.15,1.78,18.82c1.91.42,14.83-6.32,25.37-6.81C205.12,200.41,216,204,216,204Z" style="fill:#198EB6"></path><path d="M218.57,192.28s-11.4-1.3-15.39-3.34c-9.38-4.82-18.35-16.32-20.25-16.73-3.1-.68-7.32,6.66-9.44,16.39s-1.32,18.15,1.78,18.82c1.91.42,14.83-6.32,25.37-6.81C205.12,200.41,216,204,216,204Z" style="fill:#fff;opacity:0.30000000000000004"></path><path d="M184.71,191c-2.11,9.72-6.34,17.06-9.44,16.38s-3.89-9.1-1.78-18.82,6.34-17.07,9.44-16.39S186.83,181.31,184.71,191Z" style="fill:#198EB6"></path><path d="M184.71,191c-2.11,9.72-6.34,17.06-9.44,16.38s-3.89-9.1-1.78-18.82,6.34-17.07,9.44-16.39S186.83,181.31,184.71,191Z" style="opacity:0.4"></path><path d="M216.72,191l-5.29-1.15a2.54,2.54,0,0,0-3.06,2.11c-.19,1.33-.43,2.7-.73,4.1s-.66,2.75-1,4a2.55,2.55,0,0,0,1.91,3.2l6.27,1.36c3.76.82,6.47-1.83,7.23-5.61A6.86,6.86,0,0,0,216.72,191Z" style="fill:#263238"></path><path d="M179.27,189.05l-.33,1.53a1.85,1.85,0,0,0,1.11,2.12l3.84,1.6c.3-1.05.58-2.14.82-3.26s.45-2.24.62-3.32l-4.17-.14A1.87,1.87,0,0,0,179.27,189.05Z" style="fill:#263238"></path><path d="M179.27,189.05l-.33,1.53a1.85,1.85,0,0,0,1.11,2.12l3.84,1.6c.3-1.05.58-2.14.82-3.26s.45-2.24.62-3.32l-4.17-.14A1.87,1.87,0,0,0,179.27,189.05Z" style="fill:#fff;opacity:0.8"></path><path d="M182.17,190.48c-.21,1-.44,1.9-.69,2.82l2.41,1c.3-1.05.58-2.14.82-3.26s.45-2.24.62-3.32l-2.62-.09Q182.49,189,182.17,190.48Z" style="opacity:0.2"></path><path d="M274.56,191.08a6.46,6.46,0,0,0,5.85-.63c3.07-2,8.83.52,7.09,8.71-3,14.08-9.26,24.19-5.2,28.45,0,0-13.52.62-11.52-11.32,1.5-9,11.67-19.12,9.22-21.14-.82-.68-2-.33-5.85-.33Z" style="fill:#263238"></path><path d="M274.15,194.82a18.18,18.18,0,0,1,5.49.66,13.8,13.8,0,0,0,.72-5.65,30.34,30.34,0,0,0-5.8,1.25Z" style="fill:#198EB6"></path><path d="M261.42,180.82s-5.62-1.6-1.91-5.23c4.84-4.73,11.72,4.13,11.72,4.13s16.13,7.05,2.82,23.4c0,0-4.81,8.6-5.81,5.25s5.68-12.84,5.68-12.84l-.4-8.5-1.85-3.31-5.81-3.32Z" style="fill:#263238"></path><path d="M239.13,228.71a5.56,5.56,0,0,0-7.65-1.84l-.08,0c-1.75,1.07-3.61,2.26-5.45,3.36l-5.55,3.33q-3.9,2.29-7.84,4.45a51.42,51.42,0,0,1-.1-6c.07-2.34.24-4.73.42-7.12s.42-4.84.62-7.21v-.06a2.78,2.78,0,0,0-5.37-1.2c-.89,2.41-1.59,4.79-2.29,7.23s-1.23,4.9-1.7,7.44a46,46,0,0,0-.84,8,16.57,16.57,0,0,0,.65,5,8,8,0,0,0,2.4,3.75,6.86,6.86,0,0,0,3,1.47,7.67,7.67,0,0,0,2.92,0,4.42,4.42,0,0,0,.68-.21l.33-.13c2.13-.88,4.25-1.76,6.31-2.76s4.12-2,6.13-3.05,4-2.18,6-3.35,3.86-2.34,5.83-3.7A5.58,5.58,0,0,0,239.13,228.71Z" style="fill:#ce7a63"></path><path d="M244,221.41c3.37,6.79-1.48,12.68-10.37,22.12a26.67,26.67,0,0,1-9.21-14.81S234.7,220.24,244,221.41Z" style="fill:#198EB6"></path><path d="M244.35,229.47c-3.29-2-7-2.9-9.57.37a40.1,40.1,0,0,1-6.92,7.07,28.18,28.18,0,0,0,5.8,6.62C239,237.89,242.82,233.52,244.35,229.47Z" style="opacity:0.2"></path><path d="M211,205l2.28,1.51a3.15,3.15,0,0,1,1.43,2.54l.18,4.81a6,6,0,0,1-2.32,4.93l-.95.73c-4-2.25-6.59-7.59-6.59-7.59l-.92-1.44a2.65,2.65,0,0,1,.73-3.7l2.82-1.86A3.07,3.07,0,0,1,211,205Z" style="fill:#ce7a63"></path><path d="M236.19,408.9c5.18-16,8.72-33.77,5.2-46.74C262.79,299.3,253.14,281,253.14,281l-25.47-9.29s-3.64,56.61-4.74,84c-.61,15.31-3.22,35.22-6.23,53.2Z" style="fill:#263238"></path><path d="M249.4,304.26l-5.17-8.34-3.16,6.5a199.84,199.84,0,0,0,2.32,53.7,281.36,281.36,0,0,0,9.74-37.84Z" style="opacity:0.5"></path><path d="M251.84,408.9h19.31c2-16.63,2-34.52-3.9-46.48,9-65.79-4-81.9-4-81.9l-26.78-4.24s7.27,56.26,11.44,83.33C250.06,373.63,251.28,391.82,251.84,408.9Z" style="fill:#263238"></path><path d="M232.08,234.05a111.28,111.28,0,0,0-2.4,14.78c-.86,7.25-1.49,14.41-2.32,26.38L263.62,281c.89-10.32,3.92-21.77,14.07-43.72a8.57,8.57,0,0,0-5.5-12.14c-1.41-.37-2.91-.73-4.46-1.06a117.08,117.08,0,0,0-16.47-2.6c-1.81-.12-3.7-.19-5.51-.23C239.21,221.08,233.29,227.7,232.08,234.05Z" style="fill:#198EB6"></path><path d="M269.5,205.31c-2.27,5.07-5.56,14.5-2.68,18.58,0,0-4.9-1.55-16.59,3.35-2.39-4.91.13-6,.13-6,6.23-.45,7.1-4.81,7-9Z" style="fill:#ce7a63"></path><path d="M252.68,226.27a4.68,4.68,0,0,1,2.76,2.73,3.52,3.52,0,0,0,5,1.63c3-1.69,6.78-4.1,8.67-6.24A34.05,34.05,0,0,1,266.3,222S255.05,224.57,252.68,226.27Z" style="fill:#fff"></path><path d="M249.43,225.18a5.38,5.38,0,0,0-2.36,1,1.13,1.13,0,0,1-1.74-1.26c1.25-3.54,3.41-4,3.41-4a4.55,4.55,0,0,1,3.24,0A3.8,3.8,0,0,0,249.43,225.18Z" style="fill:#fff"></path><path d="M264.56,208.14l-7.16,4.1a16.13,16.13,0,0,1-.18,3c2.34,0,6-1.92,6.8-4.21A8,8,0,0,0,264.56,208.14Z" style="opacity:0.2"></path><path d="M275.71,195.4c-3,8.3-4,11.86-9.57,15.19-8.31,5-17.88.15-17.47-8.72.38-8,5.16-20.22,14.42-21.65A11.29,11.29,0,0,1,275.71,195.4Z" style="fill:#ce7a63"></path><path d="M264.56,195.09c-.22.71-.76,1.2-1.22,1.09s-.65-.77-.44-1.48.77-1.19,1.23-1.08S264.78,194.39,264.56,195.09Z" style="fill:#263238"></path><path d="M255.71,192.73c-.22.7-.77,1.19-1.23,1.08s-.65-.77-.43-1.47.77-1.2,1.23-1.09S255.93,192,255.71,192.73Z" style="fill:#263238"></path><path d="M255.47,191.34l-1.54-.89S254.39,192,255.47,191.34Z" style="fill:#263238"></path><path d="M258.28,194.19a21.6,21.6,0,0,1-3.9,3.92,3,3,0,0,0,2.36,1.06Z" style="fill:#ba4d3c"></path><path d="M267.25,191a.37.37,0,0,1-.28-.17,3.13,3.13,0,0,0-2.6-1.5.41.41,0,0,1-.42-.41.48.48,0,0,1,.45-.45,4,4,0,0,1,3.31,1.86.46.46,0,0,1-.46.67Z" style="fill:#263238"></path><path d="M253.81,186.79a.4.4,0,0,1-.22-.22.43.43,0,0,1,.27-.54,4.53,4.53,0,0,1,4,.24.4.4,0,0,1,.08.58.46.46,0,0,1-.61.11,3.59,3.59,0,0,0-3.18-.16A.44.44,0,0,1,253.81,186.79Z" style="fill:#263238"></path><path d="M264.32,193.71l-1.53-.89S263.24,194.35,264.32,193.71Z" style="fill:#263238"></path><path d="M231.34,261.31H222.7a1.94,1.94,0,0,1-1.8-1.48l-4-18.72a1.15,1.15,0,0,1,1.16-1.47h8.64a1.94,1.94,0,0,1,1.8,1.47l4,18.72A1.16,1.16,0,0,1,231.34,261.31Z" style="fill:#263238"></path><path d="M230.34,261.31H221.7a1.94,1.94,0,0,1-1.8-1.48l-4-18.72a1.15,1.15,0,0,1,1.16-1.47h8.64a1.94,1.94,0,0,1,1.8,1.47l4,18.72A1.16,1.16,0,0,1,230.34,261.31Z" style="fill:#263238"></path><path d="M230.34,261.31H221.7a1.94,1.94,0,0,1-1.8-1.48l-4-18.72a1.15,1.15,0,0,1,1.16-1.47h8.64a1.94,1.94,0,0,1,1.8,1.47l4,18.72A1.16,1.16,0,0,1,230.34,261.31Z" style="fill:#fff;opacity:0.2"></path><path d="M227.24,250.28l2.68-.59a3.19,3.19,0,0,1,2.82.74l3.58,3.22a6,6,0,0,1,1.93,5.1l-.14,1.18c-4.37,1.29-10-.53-10-.53l-1.68-.34a2.65,2.65,0,0,1-2.15-3.1l.63-3.33A3.07,3.07,0,0,1,227.24,250.28Z" style="fill:#ce7a63"></path><path d="M273.33,230.81a5.56,5.56,0,0,0-6.06,5V236c-.1,1-.23,2.22-.36,3.35s-.29,2.3-.46,3.45c-.34,2.31-.75,4.59-1.21,6.85s-1,4.48-1.65,6.65c-.53,1.74-1.14,3.42-1.79,5.06a11.8,11.8,0,0,1-2.41-.15,57.17,57.17,0,0,1-7.64-1.69c-2.35-.74-4.72-1.6-7.09-2.5s-4.76-1.87-7.09-2.8l-.06,0a2.77,2.77,0,0,0-2.69,4.8c2.2,1.62,4.42,3,6.71,4.44s4.66,2.67,7.13,3.86a55.1,55.1,0,0,0,8.8,3,20.08,20.08,0,0,0,5,.72,10.78,10.78,0,0,0,3.34-.49A8.37,8.37,0,0,0,269.7,268a5.19,5.19,0,0,0,.48-.71l.1-.19a57.4,57.4,0,0,0,3.36-7.39,72.19,72.19,0,0,0,2.32-7.56c.65-2.53,1.15-5.08,1.56-7.64.19-1.29.36-2.57.51-3.86s.26-2.54.33-4A5.57,5.57,0,0,0,273.33,230.81Z" style="fill:#ce7a63"></path><path d="M275,226.39c6.18,4.37,6.48,10.91,3.14,23.43-4.47,2.24-15.33-.59-15.33-.59S266.23,229.79,275,226.39Z" style="fill:#198EB6"></path><path d="M252.76,201.57s3-.59,11.15-.34c-1,2.44-2.88,4.38-7.09,4.25a3.82,3.82,0,0,1-4.06-3.56C252.76,201.8,252.75,201.69,252.76,201.57Z" style="fill:#263238"></path><path d="M258.82,203.57a7.72,7.72,0,0,0-4.62,1.07,4.6,4.6,0,0,0,2.61.81,7.62,7.62,0,0,0,4.61-1.07A4.4,4.4,0,0,0,258.82,203.57Z" style="fill:#ba4d3c"></path><path d="M253.13,201.52a1.71,1.71,0,0,0,1.25,1.25,43.19,43.19,0,0,0,7.28-.41,2.36,2.36,0,0,0,1.88-1.16A65.84,65.84,0,0,0,253.13,201.52Z" style="fill:#fff"></path><path d="M263.16,179.67a11.25,11.25,0,0,0-1.55.35v.48a12.36,12.36,0,0,1,3.88.57c6.92,2.11,8,6,5.68,11.75-1.11,2.74-1.71,8.55-.43,9.64.33.28,1.33.24,2.63,0,.86-2,1.68-4.33,2.73-7.27A11.57,11.57,0,0,0,263.16,179.67Z" style="fill:#263238"></path><path d="M276.5,203a7,7,0,0,1-4.95,2.16c-2.4,0-2.78-2.48-1.43-4.54,1.21-1.85,3.91-4.08,6-3.07S278.16,201.29,276.5,203Z" style="fill:#ce7a63"></path><g style="opacity:0.9"><path d="M261.75,245.48c-16.84-1-24.44-4.15-27.47-5.91a1.31,1.31,0,0,1-.27-.19c-.87-.76.23-2.15,1.24-1.57,2.65,1.53,9.95,4.64,26.62,5.67a1,1,0,0,1,.94,1.05h0A1,1,0,0,1,261.75,245.48Z" style="fill:#fff"></path></g><g style="opacity:0.9"><path d="M260.87,255a1,1,0,0,1-1.05,1A74.16,74.16,0,0,1,232,249.48a1,1,0,0,1-.43-1.38h0a1,1,0,0,1,1.31-.42A73.15,73.15,0,0,0,259.92,254a1,1,0,0,1,.95,1Z" style="fill:#fff"></path></g><g style="opacity:0.9"><path d="M243.93,271.67c-7.8-1.52-11.81-2.56-13.5-3a1,1,0,0,1-.67-1.28h0a1,1,0,0,1,1.22-.64c1.62.46,5.62,1.49,13.33,3a1,1,0,0,1,.79,1.17h0A1,1,0,0,1,243.93,271.67Z" style="fill:#fff"></path></g><path d="M261.73,183a1.4,1.4,0,0,1-1.82-.71,2.1,2.1,0,0,1,.28-2.06,4.47,4.47,0,0,1,1.7-1.34,5.43,5.43,0,0,0-1.15,2.33C260.76,182,261,183.25,261.73,183Z" style="fill:#263238"></path><path d="M270.08,203.41a.65.65,0,0,1-.74.63,1,1,0,0,1-.76-.74,2.81,2.81,0,0,1,0-1.12,7.47,7.47,0,0,1,.61-2.47,3.45,3.45,0,0,1,1.76-1.77,1.14,1.14,0,0,1,.16,1.22,7.59,7.59,0,0,1-.7,1,3.54,3.54,0,0,0-.43,3.08C270.06,203.26,270,203.4,270.08,203.41Z" style="fill:#263238"></path></g><g id="freepik--character-3--inject-14"><path d="M157.41,266.84H86.21a9.9,9.9,0,0,0-9.9,9.9v54.12a9.9,9.9,0,0,0,9.9,9.9H140a17.5,17.5,0,0,0,17.36,15.36c.39,0,.78,0,1.17-.06-2.78-3.66-5.05-9-6.54-15.3h5.45a9.9,9.9,0,0,0,9.9-9.9V276.74A9.9,9.9,0,0,0,157.41,266.84Z" style="fill:#198EB6"></path><path d="M157.41,266.84H86.21a9.9,9.9,0,0,0-9.9,9.9v54.12a9.9,9.9,0,0,0,9.9,9.9H140a17.5,17.5,0,0,0,17.36,15.36c.39,0,.78,0,1.17-.06-2.78-3.66-5.05-9-6.54-15.3h5.45a9.9,9.9,0,0,0,9.9-9.9V276.74A9.9,9.9,0,0,0,157.41,266.84Z" style="fill:#fff;opacity:0.4"></path><path d="M171.67,289.84l5.54-5.13,4.74,8.77s-5.49,4.19-8.74,1.61Z" style="fill:#ff8b7b"></path><polygon points="171.67 289.83 167.9 297.85 173.07 302.13 177.59 294.81 171.67 289.83" style="fill:#ff8b7b"></polygon><path d="M182.48,285.9l.91,3.31a3.94,3.94,0,0,1-1.44,4.27l-2,1.33-5.66-9.94,4.85-1.22A2.82,2.82,0,0,1,182.48,285.9Z" style="fill:#ff8b7b"></path><path d="M171.67,289.84s2-6.18,1.68-8.07c-.17-1.13,1-.95,1.94-.61a1.89,1.89,0,0,1,1.28,1.72c.08,2,0,5.9-1.53,6.15A20.31,20.31,0,0,0,171.67,289.84Z" style="fill:#ff8b7b"></path><path d="M178.14,296.26a10.87,10.87,0,0,0-5.91-3.4l-1.68-.35c-1-.2-1.19,0-1.31.29l-.48.75-1,1.49c-.66,1-1.32,2-2,3-1.33,2-2.72,3.87-4.12,5.69a43.16,43.16,0,0,1-4.31,4.9l-.41.38c-.52-.56-1-1.15-1.52-1.76a67.48,67.48,0,0,1-4.09-5.77c-1.29-2-5.47-8.06-6.61-10.24-.57-1.08-1.13-2.18-1.66-3.28l-.77-1.65c-.23-.53-.51-1.15-.67-1.55l-.11-.26a7.5,7.5,0,0,0-13.69,6.13c.36.81.64,1.39,1,2.06l1,1.92q1,1.91,2,3.75c1.42,2.47,5.94,8.77,7.6,11.14a66.41,66.41,0,0,0,5.51,6.88,47,47,0,0,0,6.91,6.25l.31.23a6.26,6.26,0,0,0,5.4.95,16.09,16.09,0,0,0,5.59-2.92,28.19,28.19,0,0,0,3.51-3.31,54.18,54.18,0,0,0,5.11-6.74c1.47-2.27,2.76-4.59,4-6.91.59-1.18,1.17-2.35,1.71-3.55l.8-1.8.39-.91C178.76,297.35,178.82,297,178.14,296.26Z" style="fill:#263238"></path><path d="M141.08,293.08l-5.5,3.89L134,300.73c.27.5.53,1,.81,1.5,1.41,2.47,3,4.87,4.62,7.24a66.41,66.41,0,0,0,5.51,6.88c1,1,2,2,3,3C145.24,313,141.08,293.08,141.08,293.08Z" style="opacity:0.4"></path><path d="M91.92,323.48c.43,10-1.15,9.54-1.19,17.28h48.73c2.65-23.61,1.41-27.24,1.46-42.91,0-8.82-1.35-17.82-10.13-18.74a149.74,149.74,0,0,0-31,.2,11.67,11.67,0,0,0-10.14,13.25C91.62,305.89,90.55,313.44,91.92,323.48Z" style="fill:#263238"></path><path d="M126.34,278.74a156.67,156.67,0,0,0-19.5-.06c.14,2,1.66,7,12.73,11.33,0,0,2.47-5.36,4.55-2.95,0,0,1.67-3.08,5.25,2.59C129.37,289.65,134.71,283.93,126.34,278.74Z" style="fill:#fff;opacity:0.9"></path><path d="M100,292.92c1.07,9.27-4.85,24.77-8,32.26,0-.52,0-1.09,0-1.7-.86-6.26-.76-11.56-1-17.88Z" style="opacity:0.4"></path><path d="M111.62,261a41.51,41.51,0,0,1-3.44,17.7,1.12,1.12,0,0,0,.27,1.26,21.94,21.94,0,0,0,14.7,5.32c6.55.08,6.17-2,4.62-4.27a2.71,2.71,0,0,0-.86-.79c-4.48-2.66-4.64-6.22-3.38-8.37Z" style="fill:#ff8b7b"></path><path d="M111.63,261l11.9,10.85a5,5,0,0,0-.25,4.54,9.94,9.94,0,0,1-6.85-2.45c-3.07-2.61-4.11-5.69-4.88-10C111.61,263,111.63,262,111.63,261Z" style="opacity:0.2"></path><path d="M108.08,255.36c.52,8-.61,9.28,3.45,13.33,6.11,6.09,16.06,7.25,17.47-.85,1.26-7.3,2-20.51-5.89-23.59A11,11,0,0,0,108.08,255.36Z" style="fill:#ff8b7b"></path><path d="M127.5,264s-2.81-.89-10.78-1.23c.85,2.86,2.52,5.24,6.6,5.37S127.5,264,127.5,264Z" style="fill:#263238"></path><path d="M121.5,265.81a6.72,6.72,0,0,1,4.4,1.55,3.81,3.81,0,0,1-2.57.75,6.61,6.61,0,0,1-4.4-1.56A3.81,3.81,0,0,1,121.5,265.81Z" style="fill:#ff5652"></path><path d="M127.14,263.87c-.24.59-.49,1.19-1.29,1.35a37.39,37.39,0,0,1-7-1,2.3,2.3,0,0,1-1.75-1.47A55.16,55.16,0,0,1,127.14,263.87Z" style="fill:#fff"></path><path d="M124.37,256.53a18.41,18.41,0,0,0,3.11,4.06,3,3,0,0,1-2.41.84Z" style="fill:#ff5652"></path><path d="M116.48,253.08a.31.31,0,0,1-.18-.09.4.4,0,0,1,0-.57,4,4,0,0,1,3.4-1.39.4.4,0,0,1-.12.8h0a3.19,3.19,0,0,0-2.69,1.13A.4.4,0,0,1,116.48,253.08Z" style="fill:#263238"></path><path d="M129.76,254.5a.4.4,0,0,1-.36-.12,3.16,3.16,0,0,0-2.69-1.06.4.4,0,0,1-.46-.32.41.41,0,0,1,.33-.47,4,4,0,0,1,3.41,1.3.4.4,0,0,1,0,.57A.42.42,0,0,1,129.76,254.5Z" style="fill:#263238"></path><path d="M77.08,325.11a5.42,5.42,0,0,0,.17,1.12,58.5,58.5,0,0,0,3.51,9.31q1.09,2.38,2.25,4.68a10,10,0,0,0,3.2.54H97l-1.07-2.39c-1.19-2.61-2.29-5.23-3.29-7.82a54.46,54.46,0,0,1-2.1-6.44,18.6,18.6,0,0,1,.51-2.48c.31-1.2.73-2.5,1.21-3.82,1-2.63,2.1-5.34,3.3-8s2.53-5.39,3.87-8.08,2.74-5.41,4.13-7.95l0-.09.07-.15a7.5,7.5,0,0,0-13.35-6.84c-1.5,2.94-2.85,5.75-4.21,8.66s-2.59,5.85-3.79,8.85S80,310.24,79,313.49c-.49,1.63-.93,3.31-1.3,5.12a26.44,26.44,0,0,0-.63,6.28Z" style="fill:#263238"></path><path d="M104.45,260.72a7.29,7.29,0,0,0,3.69,3.88c2.14.92,3.32-1.17,2.81-3.57-.45-2.15-2.12-5.23-4.31-5.13S103.54,258.52,104.45,260.72Z" style="fill:#ff8b7b"></path><path d="M118.37,255.8c0,.69.29,1.28.76,1.31s.86-.51.89-1.22-.29-1.28-.75-1.31S118.41,255.09,118.37,255.8Z" style="fill:#2e353a"></path><path d="M126.28,256.26c0,.7.3,1.29.75,1.32s.86-.52.91-1.22-.3-1.28-.75-1.31S126.32,255.56,126.28,256.26Z" style="fill:#2e353a"></path></g><g id="freepik--character-2--inject-14"><path d="M149.16,126.57H78a9.9,9.9,0,0,0-9.89,9.9v54.12a9.89,9.89,0,0,0,9.89,9.9h53.77a17.48,17.48,0,0,0,17.35,15.37c.4,0,.79,0,1.18-.06-2.78-3.67-5.06-9-6.54-15.31h5.45a9.9,9.9,0,0,0,9.9-9.9V136.47A9.91,9.91,0,0,0,149.16,126.57Z" style="fill:#198EB6"></path><path d="M149.16,126.57H78a9.9,9.9,0,0,0-9.89,9.9v54.12a9.89,9.89,0,0,0,9.89,9.9h53.77a17.48,17.48,0,0,0,17.35,15.37c.4,0,.79,0,1.18-.06-2.78-3.67-5.06-9-6.54-15.31h5.45a9.9,9.9,0,0,0,9.9-9.9V136.47A9.91,9.91,0,0,0,149.16,126.57Z" style="fill:#fff;opacity:0.4"></path><path d="M131.72,200.49a124.68,124.68,0,0,1,0-17.46c.62-10.24-2.44-21.31-4.75-23.2-3.33-2.75-6.43-5.34-7.53-1.88-.64,2-.83,5.3-.79,9,.1,8.94,2,20.09,2.9,25.24.33,1.82,1.16,8.31,1.16,8.31Z" style="fill:#198EB6"></path><path d="M125.5,160.27a3.86,3.86,0,0,0-2.79-3.13c-2.5-.67-6.82-1.76-10.75-2.46a100.62,100.62,0,0,0-14-1.28c-3-.12-5.88,0-8.19.1a4.43,4.43,0,0,0-.81.14,3.86,3.86,0,0,0-2.66,4.77c5.93,21.17,7.16,31.3,7.47,42.08h28.94c1.35-9.78,4-17.81,4.24-23.56A67.8,67.8,0,0,0,125.5,160.27Z" style="fill:#198EB6"></path><path d="M125.5,160.27a3.86,3.86,0,0,0-2.79-3.13c-2.5-.67-6.82-1.76-10.75-2.46a100.62,100.62,0,0,0-14-1.28c-3-.12-5.88,0-8.19.1a4.43,4.43,0,0,0-.81.14,3.86,3.86,0,0,0-2.66,4.77c5.93,21.17,7.16,31.3,7.47,42.08h28.94c1.35-9.78,4-17.81,4.24-23.56A67.8,67.8,0,0,0,125.5,160.27Z" style="fill:#fff;opacity:0.8"></path><path d="M113.61,149.79c-1.9,2.57-3.29,5.62-.31,9a4.09,4.09,0,0,1,1.07,2.57c0,1.53-.85,3-5.83.08-7.22-4.24-6.61-9-6.61-9,3.79-1.15,6.06-9.12,6.94-13.68Z" style="fill:#ffb573"></path><path d="M109.27,145.57c-.55,1.94,1.5,5,3.06,6.26a13.38,13.38,0,0,1,1.27-2l-2.8-6.55A7.09,7.09,0,0,0,109.27,145.57Z" style="isolation:isolate;opacity:0.2"></path><path d="M128.27,125.81c2.54,3.22-3.18,12.92-3.8,10.89-1-3.3-2.46-10-2.44-12.75C122.07,119.61,125.74,122.6,128.27,125.81Z" style="fill:#263238"></path><path d="M107.21,126.82a10.13,10.13,0,0,1,13.87-3.6c6.81,3.94,6.29,15,3.79,21.36-2.74,7.09-12,8-16.79,1.55-3.22-4.3-2.81-7.43-2.24-14.84A10.07,10.07,0,0,1,107.21,126.82Z" style="fill:#ffb573"></path><path d="M116.26,135c-.05.61.22,1.13.61,1.17s.76-.42.83-1-.22-1.13-.61-1.17S116.35,134.47,116.26,135Z" style="fill:#263238"></path><path d="M116.89,134.09l1.49-.27S117.54,134.84,116.89,134.09Z" style="fill:#263238"></path><path d="M123.84,136.73c0,.61.22,1.13.61,1.17s.76-.42.83-1-.22-1.13-.61-1.17S123.93,136.16,123.84,136.73Z" style="fill:#263238"></path><path d="M124.47,135.78l1.49-.27S125.12,136.53,124.47,135.78Z" style="fill:#263238"></path><path d="M121,141.3a2.62,2.62,0,0,0,2.19-.1,16.16,16.16,0,0,1-1.6-4.12Z" style="fill:#ed893e"></path><path d="M115.29,141.05a.19.19,0,0,1,.08-.24.18.18,0,0,1,.24.08,4.75,4.75,0,0,0,3.61,2.39.19.19,0,0,1,.14.2h0a.16.16,0,0,1-.19.14,4.92,4.92,0,0,1-.85-.17A5,5,0,0,1,115.29,141.05Z" style="fill:#263238"></path><path d="M116,131.15h0a.35.35,0,0,1,.07-.49,4.88,4.88,0,0,1,4-.48.36.36,0,0,1,.22.45.35.35,0,0,1-.44.22,4.14,4.14,0,0,0-3.35.36.33.33,0,0,1-.41,0Z" style="fill:#263238"></path><path d="M126.91,133.46a2.78,2.78,0,0,0-2.22-1.28h0a.35.35,0,0,1-.36-.35.36.36,0,0,1,.35-.36,3.53,3.53,0,0,1,2.82,1.58h0a.34.34,0,0,1-.1.48.32.32,0,0,1-.35,0Z" style="fill:#263238"></path><path d="M117.81,125.34a7.68,7.68,0,0,0-5.32,3.86c-.51.94-3.79,3-4.35,3.93-1.76,2.93.16,11.27-.67,11.9s-.54-1.84-1.33-2.32a15.6,15.6,0,0,1-2.4-1.35c-1-.84-4.47-9.89-.19-15.37a14.64,14.64,0,0,1,8.76-5.64,13.64,13.64,0,0,1,10.16,2.31c.93.67,2.56,2.5,0,3.32-.7.22-.73-.34-1.46-.52A7.49,7.49,0,0,0,117.81,125.34Z" style="fill:#263238"></path><path d="M100.79,133.13c2.47-2.4,5.55-2.4,8.27-2.4a10.16,10.16,0,0,0,3.83-.43c2.74-1.19,4.42-5.1,4.73-6.38a3.24,3.24,0,0,1,2.28-2.16,2.81,2.81,0,0,1,2.29,1c.49.71.44,1.74-.15,3l.39.17c.65-1.45.68-2.61.11-3.45a3.29,3.29,0,0,0-2.66-1.19,3.61,3.61,0,0,0-2.67,2.48c-.28,1.18-1.93,5-4.49,6.1a9.65,9.65,0,0,1-3.66.39c-2.66,0-6,0-8.56,2.52Z" style="fill:#263238"></path><path d="M100.79,133.13c2.47-2.4,5.55-2.4,8.27-2.4a10.16,10.16,0,0,0,3.83-.43c2.74-1.19,4.42-5.1,4.73-6.38a3.24,3.24,0,0,1,2.28-2.16,2.81,2.81,0,0,1,2.29,1c.49.71.44,1.74-.15,3l.39.17c.65-1.45.68-2.61.11-3.45a3.29,3.29,0,0,0-2.66-1.19,3.61,3.61,0,0,0-2.67,2.48c-.28,1.18-1.93,5-4.49,6.1a9.65,9.65,0,0,1-3.66.39c-2.66,0-6,0-8.56,2.52Z" style="fill:#fff;opacity:0.1"></path><path d="M102.91,135.94a2.43,2.43,0,0,1,2.73-2.1c1.84.28,2.68,2.76,2.68,4.38,0,1.79-1.33,3.12-2.95,2.11a5.46,5.46,0,0,1-2.39-3.4A2.37,2.37,0,0,1,102.91,135.94Z" style="fill:#ffb573"></path><path d="M106.18,162.33c-.39,5.12-5.12,24.46-15.37,25a6.54,6.54,0,0,1-4.46-1.59l0,0c-8.26-5-1.77-29.1-.11-30.5a5.68,5.68,0,0,1,9.15,2.72,20,20,0,0,0,.51-2.32c.43-2.61,1.85-8.69,4.47-9.13,1.58-.27,4.83-.41,5.77.88S106.83,153.88,106.18,162.33Z" style="fill:#198EB6"></path><g style="isolation:isolate;opacity:0.2"><path d="M105.64,133.84l0,.45.47,4.44v5.72l.78-3.4a7.91,7.91,0,0,0,.13-2.7l-.55-4.26Z"></path></g><path d="M100.5,147.54l-1.23-8.91,7.43-.06s-.61,6.69-2.47,9Z" style="fill:#ffb573"></path><polygon points="100.58 132.54 106.08 133.51 106.67 138.55 99.27 138.63 100.58 132.54" style="fill:#ffb573"></polygon><path d="M93.11,166.07s-4.45,10.28-4.59,6.21C88.38,167.85,93.11,166.07,93.11,166.07Z" style="opacity:0.2"></path></g><g id="freepik--Arrows--inject-14"><path d="M367.39,226.18H339.87a4.75,4.75,0,0,0-4.75,4.75v17.72a4.75,4.75,0,0,0,4.75,4.74h7.91l3.53,4.62a2.91,2.91,0,0,0,4.63,0l3.53-4.62h7.92a4.74,4.74,0,0,0,4.74-4.74V230.93A4.75,4.75,0,0,0,367.39,226.18Z" style="fill:#198EB6"></path><path d="M367.39,226.18H339.87a4.75,4.75,0,0,0-4.75,4.75v17.72a4.75,4.75,0,0,0,4.75,4.74h7.91l3.53,4.62a2.91,2.91,0,0,0,4.63,0l3.53-4.62h7.92a4.74,4.74,0,0,0,4.74-4.74V230.93A4.75,4.75,0,0,0,367.39,226.18Z" style="fill:#fff;opacity:0.7000000000000001"></path><path d="M365.79,238.36,357,233v3.22h-4a9.76,9.76,0,0,0-9.76,9.76,10.12,10.12,0,0,0,.24,2.15,9.78,9.78,0,0,1,9.52-7.61h4v3.23Z" style="fill:#198EB6"></path><path d="M173.75,117.72h21.1a3.64,3.64,0,0,1,3.64,3.64V135a3.63,3.63,0,0,1-3.64,3.63h-6.07l-2.7,3.55a2.23,2.23,0,0,1-3.55,0l-2.71-3.55h-6.07a3.62,3.62,0,0,1-3.63-3.63V121.36A3.63,3.63,0,0,1,173.75,117.72Z" style="fill:#198EB6"></path><path d="M173.75,117.72h21.1a3.64,3.64,0,0,1,3.64,3.64V135a3.63,3.63,0,0,1-3.64,3.63h-6.07l-2.7,3.55a2.23,2.23,0,0,1-3.55,0l-2.71-3.55h-6.07a3.62,3.62,0,0,1-3.63-3.63V121.36A3.63,3.63,0,0,1,173.75,117.72Z" style="fill:#fff;opacity:0.7000000000000001"></path><path d="M175,127.06l6.76-4.12v2.47h3.09a7.5,7.5,0,0,1,7.3,9.13,7.49,7.49,0,0,0-7.3-5.83h-3.09v2.47Z" style="fill:#198EB6"></path></g></svg>
